<mxfile host="app.diagrams.net" modified="2022-12-03T17:22:49.918Z" agent="5.0 (Windows NT 10.0; Win64; x64) AppleWebKit/537.36 (KHTML, like Gecko) Chrome/107.0.0.0 Safari/537.36" version="20.6.0" etag="hUBdl258y8iHvdBMYSla" type="github">
  <diagram id="b5KQDxuOGMD-ohnH0Hnm" name="Page-1">
    <mxGraphModel dx="964" dy="437" grid="1" gridSize="10" guides="1" tooltips="1" connect="1" arrows="1" fold="1" page="1" pageScale="1" pageWidth="850" pageHeight="1100" math="0" shadow="0">
      <root>
        <mxCell id="0" />
        <mxCell id="1" parent="0" />
        <mxCell id="RlJxU-pCH2iMy9qUVAHt-30" value="POS portal" style="shape=umlFrame;whiteSpace=wrap;html=1;width=90;height=20;" vertex="1" parent="1">
          <mxGeometry x="340" y="80" width="510" height="390" as="geometry" />
        </mxCell>
        <mxCell id="RlJxU-pCH2iMy9qUVAHt-1" value="cashier" style="shape=umlActor;verticalLabelPosition=bottom;verticalAlign=top;html=1;outlineConnect=0;" vertex="1" parent="1">
          <mxGeometry x="260" y="200" width="30" height="60" as="geometry" />
        </mxCell>
        <mxCell id="RlJxU-pCH2iMy9qUVAHt-4" value="Process sale" style="ellipse;whiteSpace=wrap;html=1;" vertex="1" parent="1">
          <mxGeometry x="370" y="200" width="110" height="50" as="geometry" />
        </mxCell>
        <mxCell id="RlJxU-pCH2iMy9qUVAHt-5" value="Select item" style="ellipse;whiteSpace=wrap;html=1;" vertex="1" parent="1">
          <mxGeometry x="370" y="110" width="110" height="50" as="geometry" />
        </mxCell>
        <mxCell id="RlJxU-pCH2iMy9qUVAHt-6" value="Add to cart" style="ellipse;whiteSpace=wrap;html=1;" vertex="1" parent="1">
          <mxGeometry x="580" y="110" width="110" height="50" as="geometry" />
        </mxCell>
        <mxCell id="RlJxU-pCH2iMy9qUVAHt-7" value="Calculate&lt;br&gt;total amount" style="ellipse;whiteSpace=wrap;html=1;" vertex="1" parent="1">
          <mxGeometry x="580" y="200" width="110" height="50" as="geometry" />
        </mxCell>
        <mxCell id="RlJxU-pCH2iMy9qUVAHt-9" value="Checkout" style="ellipse;whiteSpace=wrap;html=1;" vertex="1" parent="1">
          <mxGeometry x="370" y="270" width="110" height="50" as="geometry" />
        </mxCell>
        <mxCell id="RlJxU-pCH2iMy9qUVAHt-10" value="Payment" style="ellipse;whiteSpace=wrap;html=1;" vertex="1" parent="1">
          <mxGeometry x="580" y="270" width="110" height="50" as="geometry" />
        </mxCell>
        <mxCell id="RlJxU-pCH2iMy9qUVAHt-11" value="cash" style="ellipse;whiteSpace=wrap;html=1;" vertex="1" parent="1">
          <mxGeometry x="460" y="380" width="110" height="50" as="geometry" />
        </mxCell>
        <mxCell id="RlJxU-pCH2iMy9qUVAHt-12" value="Qr code" style="ellipse;whiteSpace=wrap;html=1;" vertex="1" parent="1">
          <mxGeometry x="580" y="380" width="110" height="50" as="geometry" />
        </mxCell>
        <mxCell id="RlJxU-pCH2iMy9qUVAHt-13" value="NFC card" style="ellipse;whiteSpace=wrap;html=1;" vertex="1" parent="1">
          <mxGeometry x="700" y="380" width="110" height="50" as="geometry" />
        </mxCell>
        <mxCell id="RlJxU-pCH2iMy9qUVAHt-14" value="Customer information" style="ellipse;whiteSpace=wrap;html=1;" vertex="1" parent="1">
          <mxGeometry x="720" y="270" width="110" height="50" as="geometry" />
        </mxCell>
        <mxCell id="RlJxU-pCH2iMy9qUVAHt-15" value="include" style="endArrow=open;endSize=12;dashed=1;html=1;rounded=0;exitX=1;exitY=0.5;exitDx=0;exitDy=0;entryX=0;entryY=0.5;entryDx=0;entryDy=0;" edge="1" parent="1" source="RlJxU-pCH2iMy9qUVAHt-5" target="RlJxU-pCH2iMy9qUVAHt-6">
          <mxGeometry width="160" relative="1" as="geometry">
            <mxPoint x="320" y="260" as="sourcePoint" />
            <mxPoint x="480" y="260" as="targetPoint" />
          </mxGeometry>
        </mxCell>
        <mxCell id="RlJxU-pCH2iMy9qUVAHt-16" value="include" style="endArrow=open;endSize=12;dashed=1;html=1;rounded=0;exitX=0.5;exitY=0;exitDx=0;exitDy=0;entryX=0.5;entryY=1;entryDx=0;entryDy=0;" edge="1" parent="1" source="RlJxU-pCH2iMy9qUVAHt-4" target="RlJxU-pCH2iMy9qUVAHt-5">
          <mxGeometry width="160" relative="1" as="geometry">
            <mxPoint x="320" y="260" as="sourcePoint" />
            <mxPoint x="480" y="260" as="targetPoint" />
          </mxGeometry>
        </mxCell>
        <mxCell id="RlJxU-pCH2iMy9qUVAHt-18" value="include" style="endArrow=open;endSize=12;dashed=1;html=1;rounded=0;exitX=1;exitY=0.5;exitDx=0;exitDy=0;entryX=0;entryY=0.5;entryDx=0;entryDy=0;" edge="1" parent="1" source="RlJxU-pCH2iMy9qUVAHt-4" target="RlJxU-pCH2iMy9qUVAHt-7">
          <mxGeometry width="160" relative="1" as="geometry">
            <mxPoint x="320" y="260" as="sourcePoint" />
            <mxPoint x="480" y="260" as="targetPoint" />
          </mxGeometry>
        </mxCell>
        <mxCell id="RlJxU-pCH2iMy9qUVAHt-19" value="include" style="endArrow=open;endSize=12;dashed=1;html=1;rounded=0;entryX=0;entryY=0.5;entryDx=0;entryDy=0;exitX=1;exitY=0.5;exitDx=0;exitDy=0;" edge="1" parent="1" source="RlJxU-pCH2iMy9qUVAHt-9" target="RlJxU-pCH2iMy9qUVAHt-10">
          <mxGeometry width="160" relative="1" as="geometry">
            <mxPoint x="370" y="280" as="sourcePoint" />
            <mxPoint x="530" y="280" as="targetPoint" />
          </mxGeometry>
        </mxCell>
        <mxCell id="RlJxU-pCH2iMy9qUVAHt-21" value="Extends" style="endArrow=block;endSize=16;endFill=0;html=1;rounded=0;exitX=0.5;exitY=0;exitDx=0;exitDy=0;entryX=0.5;entryY=1;entryDx=0;entryDy=0;" edge="1" parent="1" source="RlJxU-pCH2iMy9qUVAHt-11" target="RlJxU-pCH2iMy9qUVAHt-10">
          <mxGeometry x="-0.5266" y="1" width="160" relative="1" as="geometry">
            <mxPoint x="440" y="330" as="sourcePoint" />
            <mxPoint x="600" y="330" as="targetPoint" />
            <Array as="points">
              <mxPoint x="635" y="350" />
              <mxPoint x="635" y="340" />
            </Array>
            <mxPoint as="offset" />
          </mxGeometry>
        </mxCell>
        <mxCell id="RlJxU-pCH2iMy9qUVAHt-22" value="Extends" style="endArrow=block;endSize=16;endFill=0;html=1;rounded=0;exitX=0.5;exitY=0;exitDx=0;exitDy=0;" edge="1" parent="1" source="RlJxU-pCH2iMy9qUVAHt-12">
          <mxGeometry x="-0.6667" width="160" relative="1" as="geometry">
            <mxPoint x="525" y="390" as="sourcePoint" />
            <mxPoint x="635" y="320" as="targetPoint" />
            <Array as="points">
              <mxPoint x="635" y="350" />
            </Array>
            <mxPoint as="offset" />
          </mxGeometry>
        </mxCell>
        <mxCell id="RlJxU-pCH2iMy9qUVAHt-23" value="Extends" style="endArrow=block;endSize=16;endFill=0;html=1;rounded=0;exitX=0.5;exitY=0;exitDx=0;exitDy=0;" edge="1" parent="1" source="RlJxU-pCH2iMy9qUVAHt-13" target="RlJxU-pCH2iMy9qUVAHt-10">
          <mxGeometry x="-0.5266" y="-1" width="160" relative="1" as="geometry">
            <mxPoint x="560" y="360" as="sourcePoint" />
            <mxPoint x="640" y="320" as="targetPoint" />
            <Array as="points">
              <mxPoint x="635" y="350" />
            </Array>
            <mxPoint as="offset" />
          </mxGeometry>
        </mxCell>
        <mxCell id="RlJxU-pCH2iMy9qUVAHt-24" value="include" style="endArrow=open;endSize=12;dashed=1;html=1;rounded=0;exitX=0.704;exitY=0.01;exitDx=0;exitDy=0;exitPerimeter=0;entryX=0.5;entryY=1;entryDx=0;entryDy=0;" edge="1" parent="1" source="RlJxU-pCH2iMy9qUVAHt-12" target="RlJxU-pCH2iMy9qUVAHt-14">
          <mxGeometry width="160" relative="1" as="geometry">
            <mxPoint x="590" y="290" as="sourcePoint" />
            <mxPoint x="750" y="290" as="targetPoint" />
            <Array as="points">
              <mxPoint x="670" y="340" />
              <mxPoint x="760" y="340" />
            </Array>
          </mxGeometry>
        </mxCell>
        <mxCell id="RlJxU-pCH2iMy9qUVAHt-25" value="include" style="endArrow=open;endSize=12;dashed=1;html=1;rounded=0;exitX=0.5;exitY=0;exitDx=0;exitDy=0;entryX=0.5;entryY=1;entryDx=0;entryDy=0;" edge="1" parent="1" source="RlJxU-pCH2iMy9qUVAHt-13" target="RlJxU-pCH2iMy9qUVAHt-14">
          <mxGeometry x="-0.3733" y="-2" width="160" relative="1" as="geometry">
            <mxPoint x="550" y="330" as="sourcePoint" />
            <mxPoint x="770" y="320" as="targetPoint" />
            <Array as="points">
              <mxPoint x="760" y="340" />
            </Array>
            <mxPoint as="offset" />
          </mxGeometry>
        </mxCell>
        <mxCell id="RlJxU-pCH2iMy9qUVAHt-26" value="" style="endArrow=classic;html=1;rounded=0;exitX=1;exitY=0.3333333333333333;exitDx=0;exitDy=0;exitPerimeter=0;entryX=-0.003;entryY=0.4;entryDx=0;entryDy=0;entryPerimeter=0;" edge="1" parent="1" source="RlJxU-pCH2iMy9qUVAHt-1" target="RlJxU-pCH2iMy9qUVAHt-4">
          <mxGeometry width="50" height="50" relative="1" as="geometry">
            <mxPoint x="440" y="270" as="sourcePoint" />
            <mxPoint x="490" y="220" as="targetPoint" />
          </mxGeometry>
        </mxCell>
        <mxCell id="RlJxU-pCH2iMy9qUVAHt-27" value="" style="endArrow=classic;html=1;rounded=0;entryX=0;entryY=0.5;entryDx=0;entryDy=0;exitX=1;exitY=0.3333333333333333;exitDx=0;exitDy=0;exitPerimeter=0;" edge="1" parent="1" source="RlJxU-pCH2iMy9qUVAHt-1" target="RlJxU-pCH2iMy9qUVAHt-9">
          <mxGeometry width="50" height="50" relative="1" as="geometry">
            <mxPoint x="270" y="220" as="sourcePoint" />
            <mxPoint x="379.6700000000001" y="230" as="targetPoint" />
          </mxGeometry>
        </mxCell>
        <mxCell id="RlJxU-pCH2iMy9qUVAHt-28" value="" style="endArrow=classic;html=1;rounded=0;entryX=0;entryY=0;entryDx=0;entryDy=0;exitX=1;exitY=0.3333333333333333;exitDx=0;exitDy=0;exitPerimeter=0;" edge="1" parent="1" source="RlJxU-pCH2iMy9qUVAHt-1" target="RlJxU-pCH2iMy9qUVAHt-29">
          <mxGeometry width="50" height="50" relative="1" as="geometry">
            <mxPoint x="270" y="220" as="sourcePoint" />
            <mxPoint x="400" y="360" as="targetPoint" />
          </mxGeometry>
        </mxCell>
        <mxCell id="RlJxU-pCH2iMy9qUVAHt-29" value="Print receipt" style="ellipse;whiteSpace=wrap;html=1;" vertex="1" parent="1">
          <mxGeometry x="370" y="340" width="110" height="50" as="geometry" />
        </mxCell>
      </root>
    </mxGraphModel>
  </diagram>
</mxfile>
